<?xml version="1.0" encoding="iso-8859-1"?>
<!-- Generator: Adobe Illustrator 25.0.0, SVG Export Plug-In . SVG Version: 6.00 Build 0)  -->
<svg version="1.1" id="Layer_1" xmlns="http://www.w3.org/2000/svg" xmlns:xlink="http://www.w3.org/1999/xlink" x="0px" y="0px"
	 viewBox="0 0 566.809 283.46" style="enable-background:new 0 0 566.809 283.46;" xml:space="preserve">
<path style="fill:#007AC9;" d="M531.413,0H35.43C15.947,0,0,15.947,0,35.435v212.552c0,19.491,15.947,35.424,35.43,35.424h495.983
	c19.482,0,35.396-15.933,35.396-35.424V35.435C566.809,15.947,550.896,0,531.413,0"/>
<path style="fill:#FFFFFF;" d="M346.649,151.081c0-2.191,1.827-3.985,3.928-3.985c2.183,0,3.988,1.794,3.988,3.985v27.586h40.454
	v-27.586c0-2.191,1.788-3.985,3.999-3.985c2.111,0,3.908,1.794,3.908,3.985v62.988c0,2.201-1.797,3.996-3.908,3.996
	c-2.211,0-3.999-1.795-3.999-3.996v-27.99h-40.454v27.99c0,2.201-1.806,3.996-3.988,3.996c-2.1,0-3.928-1.795-3.928-3.996V151.081z
	 M422.093,183.276v-28.395h21.615c11.301,0,17.923,5.201,17.923,13.787v0.218c0,9.001-7.5,14.39-18.022,14.39H422.093z
	 M414.157,214.069c0,2.18,1.797,3.996,3.908,3.996c2.213,0,4.027-1.816,4.027-3.996v-23.678h20.115l19.72,25.563
	c0.907,1.215,2.102,2.111,3.711,2.111c2.002,0,4.006-1.816,4.006-3.898c0-1.105-0.513-1.992-1.313-2.9l-17.419-22.395
	c10.917-2.094,18.732-8.793,18.732-20.293v-0.197c0-5.495-2.004-10.393-5.407-13.797c-4.413-4.393-11.31-6.998-19.938-6.998h-26.234
	c-2.111,0-3.908,1.797-3.908,3.988V214.069z M496.768,214.069c0,2.182,1.774,3.996,3.997,3.996c2.21,0,3.997-1.814,3.997-3.996
	v-59.188h20.331c1.992,0,3.71-1.59,3.71-3.594c0-2.014-1.718-3.701-3.71-3.701h-48.668c-2.003,0-3.701,1.688-3.701,3.701
	c0,2.004,1.698,3.594,3.701,3.594h20.343V214.069z M345.169,129.268c0,4.294,3.394,7.711,7.691,7.711
	c4.311,0,7.727-3.416,7.727-7.711v-20.992h28.422v20.992c0,4.294,3.416,7.711,7.718,7.711c4.304,0,7.718-3.416,7.718-7.711V73.487
	c0-4.303-3.414-7.698-7.718-7.698c-4.302,0-7.718,3.395-7.718,7.698v20.598h-28.422V73.487c0-4.303-3.416-7.698-7.727-7.698
	c-4.297,0-7.691,3.395-7.691,7.698V129.268z M416.567,128.964c7.807,5.607,17.132,8.388,26.351,8.388
	c15.101,0,25.72-7.767,25.72-21.693v-0.178c0-12.207-8.013-17.31-22.234-21.002c-12.111-3.098-15.112-4.599-15.112-9.188v-0.208
	c0-3.395,3.101-6.1,9.001-6.1c4.818,0,9.614,1.698,14.717,4.698c1.194,0.691,2.418,1.105,3.918,1.105
	c4.007,0,7.194-3.098,7.194-7.106c0-2.999-1.686-5.102-3.395-6.088c-6.316-4.008-13.708-6.199-22.236-6.199
	c-14.312,0-24.536,8.389-24.536,21.1v0.189c0,13.897,9.11,17.795,23.232,21.397c11.726,3.01,14.114,4.995,14.114,8.903v0.188
	c0,4.094-3.79,6.591-10.097,6.591c-6.801,0-12.622-2.389-17.923-6.286c-0.996-0.711-2.409-1.413-4.402-1.413
	c-4.017,0-7.204,3.11-7.204,7.117C413.675,125.579,414.869,127.787,416.567,128.964 M477.836,128.668
	c0,4.304,3.395,7.699,7.698,7.699h36.263c3.887,0,7.006-3.099,7.006-6.998c0-3.889-3.119-6.997-7.006-6.997h-28.545V73.487
	c0-4.303-3.404-7.698-7.718-7.698c-4.304,0-7.698,3.395-7.698,7.698V128.668z M202.866,147.942c5.535,0,9.573-2.486,9.573-5.893
	c0-3.403-4.018-5.881-9.55-5.881c-0.4,0-7.066,0.207-10.491,5.823C195.739,147.784,202.549,147.933,202.866,147.942 M187.661,201.15
	c2.423-2.408,1.332-6.998-2.581-10.916c-0.287-0.275-5.156-4.846-11.547-3.287c-1.747,6.465,2.955,11.371,3.192,11.578
	C180.648,202.433,185.253,203.538,187.661,201.15 M128.281,225.419c3.414,0,5.897-4.008,5.897-9.524
	c0-0.375-0.213-7.058-5.844-10.473c-5.803,3.346-5.946,10.127-5.946,10.443C122.388,221.392,124.866,225.419,128.281,225.419
	 M80.033,198.091c0.266-0.287,4.835-5.123,3.3-11.488c-6.478-1.777-11.398,2.951-11.625,3.159
	c-3.918,3.927-4.999,8.497-2.596,10.916C71.516,203.085,76.119,201.999,80.033,198.091 M54.323,147.292
	c0.38-0.021,7.076-0.207,10.491-5.834c-3.347-5.794-10.141-5.941-10.447-5.941c-5.557,0-9.588,2.467-9.588,5.901
	C44.779,144.814,48.785,147.292,54.323,147.292 M69.552,82.319c-2.414,2.389-1.308,6.998,2.58,10.896
	c0.297,0.287,5.167,4.838,11.557,3.288c1.738-6.476-2.965-11.361-3.192-11.567C76.583,81.007,71.964,79.911,69.552,82.319
	 M128.932,58.022c-3.405,0-5.878,4.006-5.902,9.544c0.024,0.385,0.216,7.066,5.833,10.471c5.828-3.356,5.961-10.126,5.961-10.442
	C134.824,62.058,132.356,58.022,128.932,58.022 M177.174,85.35c-0.272,0.286-4.85,5.142-3.306,11.497
	c6.499,1.767,11.414-2.941,11.646-3.168c3.918-3.908,4.999-8.486,2.586-10.896C185.687,80.376,181.093,81.471,177.174,85.35
	 M183.624,141.923l-15.993-38.936L128.813,86.79l-38.975,15.94l-16.24,38.807l16.004,38.915l38.796,16.207l38.98-15.949
	L183.624,141.923z M202.889,128.194c10.151,0,17.533,5.823,17.533,13.855c0,8.026-7.382,13.858-17.533,13.858
	c-0.429,0-8.231-0.049-14.099-5.664l-11.897,28.404c8.044,0.285,13.527,5.655,13.823,5.941c7.179,7.186,8.274,16.512,2.595,22.178
	c-5.685,5.684-15.031,4.598-22.227-2.586c-0.311-0.297-5.784-5.834-5.951-13.938l-28.528,11.695
	c5.468,5.844,5.562,13.532,5.562,13.948c0,10.153-5.848,17.517-13.886,17.517c-8.045,0-13.877-7.363-13.877-17.517
	c0-0.416,0.045-8.204,5.675-14.046l-28.415-11.883c-0.311,7.994-5.68,13.451-5.986,13.758c-7.18,7.166-16.531,8.271-22.211,2.587
	c-5.671-5.657-4.6-14.974,2.575-22.149c0.296-0.305,5.863-5.781,13.991-5.939L68.322,149.7c-5.877,5.467-13.565,5.557-13.991,5.557
	c-10.16,0-17.532-5.824-17.532-13.838c0-8.043,7.372-13.866,17.532-13.866c0.441,0,8.232,0.05,14.101,5.655l11.886-28.403
	c-8.028-0.289-13.525-5.636-13.817-5.933c-7.199-7.184-8.3-16.522-2.59-22.207c5.665-5.655,15.031-4.569,22.226,2.606
	c0.301,0.316,5.774,5.842,5.951,13.945l28.523-11.685c-5.467-5.862-5.556-13.54-5.556-13.946c0-10.165,5.833-17.528,13.877-17.528
	c8.044,0,13.877,7.363,13.877,17.528c0,0.413-0.05,8.183-5.675,14.045l28.424,11.853c0.301-7.985,5.665-13.452,5.956-13.748
	c7.195-7.176,16.536-8.271,22.237-2.587c5.675,5.667,4.603,14.973-2.571,22.158c-0.317,0.296-5.862,5.784-14.006,5.932
	l11.725,28.493C194.768,128.293,202.46,128.194,202.889,128.194 M270.067,54.053c0-2.201-1.811-3.996-4.012-3.996
	c-2.107,0-3.913,1.795-3.913,3.996v175.354c0,2.211,1.806,3.996,3.913,3.996c2.201,0,4.012-1.785,4.012-3.996V54.053z
	 M285.873,54.053c0-2.201-1.802-3.996-3.992-3.996c-2.102,0-3.914,1.795-3.914,3.996v175.354c0,2.211,1.812,3.996,3.914,3.996
	c2.19,0,3.992-1.785,3.992-3.996V54.053z"/>
</svg>
